<svg xmlns="http://www.w3.org/2000/svg" version="1.1" xmlns:xlink="http://www.w3.org/1999/xlink" xmlns:svgjs="http://svgjs.dev/svgjs" width="1500" height="1500" viewBox="0 0 1500 1500"><rect width="1500" height="1500" fill="#0a1627"></rect><g transform="matrix(0.6666666666666666,0,0,0.6666666666666666,249.39393939393938,435.99032258064517)"><svg viewBox="0 0 396 248" data-background-color="#0a1627" preserveAspectRatio="xMidYMid meet" height="939" width="1500" xmlns="http://www.w3.org/2000/svg" xmlns:xlink="http://www.w3.org/1999/xlink"><g id="tight-bounds" transform="matrix(1,0,0,1,0.2400000000000091,0.4000000000000057)"><svg viewBox="0 0 395.52 247.2" height="247.2" width="395.52"><g><svg></svg></g><g><svg viewBox="0 0 395.52 247.2" height="247.2" width="395.52"><mask id="d998b5fb-b964-4e5b-8504-3d0800d1bc57"><rect width="395.52" height="247.2" fill="white"></rect><g transform="matrix(1,0,0,1,106.88855964188537,37.08000000000001)" id="clone"><svg viewBox="0 0 181.74288071622925 173.03999999999996" height="173.03999999999996" width="181.74288071622925"><g><svg viewBox="0 0 181.74288071622925 173.03999999999996" height="173.03999999999996" width="181.74288071622925"><g><svg viewBox="0 0 181.74288071622925 173.03999999999996" height="173.03999999999996" width="181.74288071622925"><g><svg viewBox="0 0 181.74288071622925 173.03999999999996" height="173.03999999999996" width="181.74288071622925"><g id="SvgjsG4483"><svg viewBox="0 0 181.74288071622925 173.03999999999996" height="173.03999999999996" width="181.74288071622925" id="SvgjsSvg4482"><g><svg viewBox="0 0 181.74288071622925 173.03999999999996" height="173.03999999999996" width="181.74288071622925"><g transform="matrix(1,0,0,1,0,0)"><svg width="181.74288071622925" viewBox="-1.35 -34.401947696172 39.6 37.751947696172" height="173.03999999999996" data-palette-color="#fe0039"><path d="M12.85 0.35L12.85 0.35Q10.4 0.35 9.18-0.53 7.95-1.4 7.95-3.4L7.95-3.4Q7.95-3.65 7.98-3.9 8-4.15 8.05-4.45L8.05-4.45Q8.2-5.7 8.78-7.78 9.35-9.85 10.33-12.43 11.3-15 12.58-17.73 13.85-20.45 15.35-22.95L15.35-22.95Q15.5-23.2 16.13-24.1 16.75-25 17.32-26 17.9-27 17.9-27.45L17.9-27.45Q17.9-27.9 17.3-27.65L17.3-27.65Q16.45-27.35 15.3-26.35 14.15-25.35 12.8-24.05 11.45-22.75 9.98-21.53 8.5-20.3 6.98-19.48 5.45-18.65 4-18.65L4-18.65Q3.65-18.65 3.28-18.7 2.9-18.75 2.5-18.9L2.5-18.9Q1.65-19.2 1.65-20.4L1.65-20.4Q1.65-21.55 2.33-23.13 3-24.7 4-26.15L4-26.15Q4.25-26.55 4.6-26.73 4.95-26.9 5.15-26.9L5.15-26.9Q5.55-26.9 5.55-26.55L5.55-26.55Q5.55-26.4 5.4-26.15L5.4-26.15Q5.35-25.95 5.28-25.8 5.2-25.65 5.2-25.55L5.2-25.55Q5.2-25.2 5.55-25.08 5.9-24.95 6.3-24.95L6.3-24.95Q7.35-24.95 9.05-25.65 10.75-26.35 12.73-27.38 14.7-28.4 16.68-29.4 18.65-30.4 20.35-30.98 22.05-31.55 23.15-31.35L23.15-31.35Q24-31.15 24.68-30.15 25.35-29.15 25.55-28.4L25.55-28.4Q25.65-28.1 25.25-27.4 24.85-26.7 24.23-25.85 23.6-25 23-24.25 22.4-23.5 22.1-23.1L22.1-23.1Q21.45-22.3 20.63-21.18 19.8-20.05 19-18.98 18.2-17.9 17.7-17.15L17.7-17.15Q17.4-16.65 17.4-16.28 17.4-15.9 17.6-16.15L17.6-16.15Q18.95-18.1 20.75-20.4 22.55-22.7 24.38-24.88 26.2-27.05 27.68-28.65 29.15-30.25 29.85-30.75L29.85-30.75Q30.55-31.3 31.2-31.3L31.2-31.3Q31.7-31.3 32.2-31.08 32.7-30.85 33.35-30.45L33.35-30.45Q34.4-29.9 34.83-29.05 35.25-28.2 35.25-27.2L35.25-27.2Q35.25-26.4 35.02-25.58 34.8-24.75 34.4-24L34.4-24Q32.05-19.35 30.15-15.75 28.25-12.15 27.1-8.95L27.1-8.95Q26.6-7.4 26.33-5.93 26.05-4.45 26.05-3.25L26.05-3.25Q26.05-1.25 26.6-0.55L26.6-0.55Q26.45-0.25 25.93-0.1 25.4 0.05 24.85 0.05L24.85 0.05Q23.5 0.05 22.58-0.75 21.65-1.55 21.18-2.78 20.7-4 20.7-5.3L20.7-5.3Q20.7-7.2 21.28-9.43 21.85-11.65 22.73-13.85 23.6-16.05 24.5-17.95 25.4-19.85 26-21.2L26-21.2Q26.7-22.7 27.2-23.93 27.7-25.15 27.9-25.75L27.9-25.75Q26.3-24.3 24.28-22.23 22.25-20.15 20.23-17.68 18.2-15.2 16.5-12.5 14.8-9.8 13.75-7.08 12.7-4.35 12.7-1.8L12.7-1.8Q12.7-0.65 13.25 0L13.25 0Q13.35 0.2 13.35 0.2L13.35 0.2Q13.35 0.35 12.85 0.35Z" opacity="1" transform="matrix(1,0,0,1,0,0)" fill="black" class="wordmark-text-0" id="SvgjsPath4481" stroke-width="5" stroke="black" stroke-linejoin="round"></path></svg></g></svg></g></svg></g></svg></g></svg></g></svg></g></svg></g></mask><g mask="url(#d998b5fb-b964-4e5b-8504-3d0800d1bc57)"><g><path d="M167.582 209.156v0c-8.802 0-15.395-1.581-19.778-4.742-4.419-3.126-6.628-8.281-6.629-15.467v0c0-0.898 0.054-1.796 0.162-2.694 0.072-0.898 0.198-1.886 0.377-2.964v0c0.539-4.491 1.85-10.473 3.934-17.946 2.048-7.437 4.832-15.79 8.353-25.059 3.485-9.233 7.527-18.754 12.125-28.562 4.563-9.772 9.539-19.149 14.928-28.13v0c0.539-0.898 1.94-2.964 4.203-6.198 2.227-3.233 4.365-6.646 6.413-10.239 2.084-3.593 3.126-6.197 3.126-7.814v0c0-1.617-1.078-1.976-3.233-1.078v0c-3.054 1.078-6.646 3.413-10.778 7.006-4.132 3.593-8.622 7.724-13.473 12.395-4.85 4.67-9.916 9.197-15.197 13.58-5.317 4.419-10.706 8.101-16.167 11.048-5.497 2.982-10.85 4.473-16.059 4.473v0c-1.257 0-2.551-0.09-3.88-0.27-1.365-0.18-2.766-0.539-4.204-1.078v0c-3.054-1.078-4.581-3.772-4.58-8.083v0c0-4.132 1.222-9.036 3.664-14.712 2.407-5.641 5.407-11.065 9-16.275v0c0.898-1.437 1.976-2.479 3.233-3.126 1.257-0.611 2.245-0.916 2.964-0.916v0c1.437 0 2.156 0.629 2.156 1.886v0c0 0.539-0.269 1.257-0.809 2.156v0c-0.18 0.719-0.395 1.347-0.646 1.886-0.287 0.539-0.431 0.988-0.431 1.347v0c0 1.257 0.629 2.102 1.886 2.533 1.257 0.467 2.605 0.701 4.041 0.701v0c3.772 0 8.712-1.257 14.82-3.773 6.108-2.515 12.718-5.623 19.832-9.323 7.078-3.665 14.173-7.293 21.286-10.885 7.078-3.593 13.67-6.431 19.778-8.515 6.108-2.048 11.137-2.712 15.089-1.994v0c3.054 0.719 5.802 2.874 8.246 6.467 2.407 3.593 3.97 6.736 4.688 9.431v0c0.359 1.078-0.18 2.874-1.617 5.389-1.437 2.515-3.269 5.299-5.496 8.353-2.263 3.054-4.473 5.928-6.629 8.622-2.156 2.695-3.772 4.76-4.85 6.197v0c-2.335 2.874-4.976 6.323-7.922 10.347-2.982 4.06-5.91 8.012-8.784 11.856-2.874 3.88-5.209 7.167-7.006 9.862v0c-1.078 1.796-1.617 3.359-1.616 4.689 0 1.365 0.359 1.599 1.077 0.7v0c4.85-7.006 10.509-14.64 16.976-22.903 6.467-8.263 12.988-16.311 19.562-24.143 6.539-7.796 12.467-14.568 17.784-20.317 5.281-5.748 9.179-9.521 11.694-11.316v0c2.515-1.976 4.94-2.964 7.275-2.964v0c1.796 0 3.593 0.395 5.389 1.185 1.796 0.826 3.862 1.958 6.197 3.395v0c3.772 1.976 6.431 4.491 7.976 7.545 1.509 3.054 2.263 6.377 2.263 9.97v0c0 2.874-0.413 5.784-1.239 8.73-0.79 2.982-1.904 5.82-3.341 8.514v0c-8.443 16.706-16.077 31.526-22.903 44.46-6.826 12.934-12.305 25.149-16.437 36.645v0c-1.796 5.569-3.18 10.994-4.15 16.275-1.006 5.317-1.509 10.131-1.508 14.442v0c0 7.185 0.988 12.035 2.964 14.551v0c-0.539 1.078-1.742 1.886-3.611 2.425-1.904 0.539-3.844 0.808-5.82 0.808v0c-4.85 0-8.928-1.437-12.233-4.311-3.341-2.874-5.856-6.521-7.545-10.94-1.724-4.383-2.587-8.91-2.587-13.58v0c0-6.826 1.042-14.245 3.126-22.257 2.048-7.976 4.653-15.916 7.814-23.819 3.126-7.904 6.305-15.269 9.539-22.095 3.233-6.826 5.928-12.664 8.083-17.514v0c2.515-5.389 4.67-10.293 6.467-14.712 1.796-4.383 3.054-7.652 3.772-9.808v0c-5.748 5.209-12.251 11.532-19.508 18.969-7.293 7.473-14.568 15.646-21.826 24.52-7.293 8.91-13.993 18.215-20.101 27.915-6.108 9.7-11.047 19.436-14.819 29.208-3.772 9.808-5.658 19.293-5.659 28.454v0c0 4.132 0.988 7.365 2.964 9.701v0c0.359 0.719 0.539 1.078 0.539 1.078v0c0 0.539-0.898 0.808-2.694 0.808z" fill="#fe0039" fill-rule="nonzero" stroke="none" stroke-width="1" stroke-linecap="butt" stroke-linejoin="miter" stroke-miterlimit="10" stroke-dasharray="" stroke-dashoffset="0" font-family="none" font-weight="none" font-size="none" text-anchor="none" style="mix-blend-mode: normal" data-fill-palette-color="tertiary"></path></g></g><g transform="matrix(1,0,0,1,106.88855964188537,37.08000000000001)"><svg viewBox="0 0 181.74288071622925 173.03999999999996" height="173.03999999999996" width="181.74288071622925"><g><svg viewBox="0 0 181.74288071622925 173.03999999999996" height="173.03999999999996" width="181.74288071622925"><g><svg viewBox="0 0 181.74288071622925 173.03999999999996" height="173.03999999999996" width="181.74288071622925"><g><svg viewBox="0 0 181.74288071622925 173.03999999999996" height="173.03999999999996" width="181.74288071622925"><g id="textblocktransform"><svg viewBox="0 0 181.74288071622925 173.03999999999996" height="173.03999999999996" width="181.74288071622925" id="textblock"><g><svg viewBox="0 0 181.74288071622925 173.03999999999996" height="173.03999999999996" width="181.74288071622925"><g transform="matrix(1,0,0,1,0,0)"><svg width="181.74288071622925" viewBox="-1.35 -34.401947696172 39.6 37.751947696172" height="173.03999999999996" data-palette-color="#fe0039"><path d="M12.85 0.35L12.85 0.35Q10.4 0.35 9.18-0.53 7.95-1.4 7.95-3.4L7.95-3.4Q7.95-3.65 7.98-3.9 8-4.15 8.05-4.45L8.05-4.45Q8.2-5.7 8.78-7.78 9.35-9.85 10.33-12.43 11.3-15 12.58-17.73 13.85-20.45 15.35-22.95L15.35-22.95Q15.5-23.2 16.13-24.1 16.75-25 17.32-26 17.9-27 17.9-27.45L17.9-27.45Q17.9-27.9 17.3-27.65L17.3-27.65Q16.45-27.35 15.3-26.35 14.15-25.35 12.8-24.05 11.45-22.75 9.98-21.53 8.5-20.3 6.98-19.48 5.45-18.65 4-18.65L4-18.65Q3.65-18.65 3.28-18.7 2.9-18.75 2.5-18.9L2.5-18.9Q1.65-19.2 1.65-20.4L1.65-20.4Q1.65-21.55 2.33-23.13 3-24.7 4-26.15L4-26.15Q4.25-26.55 4.6-26.73 4.95-26.9 5.15-26.9L5.15-26.9Q5.55-26.9 5.55-26.55L5.55-26.55Q5.55-26.4 5.4-26.15L5.4-26.15Q5.35-25.95 5.28-25.8 5.2-25.65 5.2-25.55L5.2-25.55Q5.2-25.2 5.55-25.08 5.9-24.95 6.3-24.95L6.3-24.95Q7.35-24.95 9.05-25.65 10.75-26.35 12.73-27.38 14.7-28.4 16.68-29.4 18.65-30.4 20.35-30.98 22.05-31.55 23.15-31.35L23.15-31.35Q24-31.15 24.68-30.15 25.35-29.15 25.55-28.4L25.55-28.4Q25.65-28.1 25.25-27.4 24.85-26.7 24.23-25.85 23.6-25 23-24.25 22.4-23.5 22.1-23.1L22.1-23.1Q21.45-22.3 20.63-21.18 19.8-20.05 19-18.98 18.2-17.9 17.7-17.15L17.7-17.15Q17.4-16.65 17.4-16.28 17.4-15.9 17.6-16.15L17.6-16.15Q18.95-18.1 20.75-20.4 22.55-22.7 24.38-24.88 26.2-27.05 27.68-28.65 29.15-30.25 29.85-30.75L29.85-30.75Q30.55-31.3 31.2-31.3L31.2-31.3Q31.7-31.3 32.2-31.08 32.7-30.85 33.35-30.45L33.35-30.45Q34.4-29.9 34.83-29.05 35.25-28.2 35.25-27.2L35.25-27.2Q35.25-26.4 35.02-25.58 34.8-24.75 34.4-24L34.4-24Q32.05-19.35 30.15-15.75 28.25-12.15 27.1-8.95L27.1-8.95Q26.6-7.4 26.33-5.93 26.05-4.45 26.05-3.25L26.05-3.25Q26.05-1.25 26.6-0.55L26.6-0.55Q26.45-0.25 25.93-0.1 25.4 0.05 24.85 0.05L24.85 0.05Q23.5 0.05 22.58-0.75 21.65-1.55 21.18-2.78 20.7-4 20.7-5.3L20.7-5.3Q20.7-7.2 21.28-9.43 21.85-11.65 22.73-13.85 23.6-16.05 24.5-17.95 25.4-19.85 26-21.2L26-21.2Q26.7-22.7 27.2-23.93 27.7-25.15 27.9-25.75L27.9-25.75Q26.3-24.3 24.28-22.23 22.25-20.15 20.23-17.68 18.2-15.2 16.5-12.5 14.8-9.8 13.75-7.08 12.7-4.35 12.7-1.8L12.7-1.8Q12.7-0.65 13.25 0L13.25 0Q13.35 0.2 13.35 0.2L13.35 0.2Q13.35 0.35 12.85 0.35Z" opacity="1" transform="matrix(1,0,0,1,0,0)" fill="#fe0039" class="wordmark-text-0" data-fill-palette-color="primary" id="text-0"></path></svg></g></svg></g></svg></g></svg></g></svg></g></svg></g></svg></g></svg></g><defs></defs></svg><rect width="395.52" height="247.2" fill="none" stroke="none" visibility="hidden"></rect></g></svg></g></svg>